<svg width="128" height="128" viewBox="0 0 24 24" fill="none" xmlns="http://www.w3.org/2000/svg">
  <!-- 白色背景 -->
  <rect width="24" height="24" fill="white" rx="2"/>
  
  <!-- 主图标 -->
  <path d="M21 16V8a2 2 0 0 0-1-1.73l-7-4a2 2 0 0 0-2 0l-7 4A2 2 0 0 0 3 8v8a2 2 0 0 0 1 1.73l7 4a2 2 0 0 0 2 0l7-4A2 2 0 0 0 21 16z" 
        stroke="#667eea" 
        stroke-width="1.5" 
        stroke-linecap="round" 
        stroke-linejoin="round" 
        fill="rgba(102, 126, 234, 0.1)"/>
  
  <!-- 连接线 -->
  <polyline points="3.27,6.96 12,12.01 20.73,6.96" 
            stroke="#667eea" 
            stroke-width="1.5" 
            stroke-linecap="round" 
            stroke-linejoin="round"/>
  
  <!-- 中心线 -->
  <line x1="12" y1="22.08" x2="12" y2="12" 
        stroke="#667eea" 
        stroke-width="1.5" 
        stroke-linecap="round" 
        stroke-linejoin="round"/>
</svg>